HIERARCHY
ROOT Hips
{
	OFFSET -0.001795 -0.223333 0.028219
	CHANNELS 6 Xposition Yposition Zposition Zrotation Yrotation Xrotation 
	JOINT LeftUpLeg
	{
		OFFSET 0.069520 -0.091406 -0.006815
		CHANNELS 3 Zrotation Yrotation Xrotation
		JOINT LeftLeg
		{
			OFFSET 0.034277 -0.375199 -0.004496
			CHANNELS 3 Zrotation Yrotation Xrotation
			JOINT LeftFoot
			{
				OFFSET -0.013596 -0.397961 -0.043693
				CHANNELS 3 Zrotation Yrotation Xrotation
				JOINT LeftToe
				{
					OFFSET 0.026358 -0.055791 0.119288
					CHANNELS 3 Zrotation Yrotation Xrotation
					End Site
					{
						OFFSET 0.000000 0.000000 0.000000
					}
				}
			}
		}
	}
	JOINT RightUpLeg
	{
		OFFSET -0.067670 -0.090522 -0.004320
		CHANNELS 3 Zrotation Yrotation Xrotation
		JOINT RightLeg
		{
			OFFSET -0.038290 -0.382569 -0.008850
			CHANNELS 3 Zrotation Yrotation Xrotation
			JOINT RightFoot
			{
				OFFSET 0.015774 -0.398415 -0.042312
				CHANNELS 3 Zrotation Yrotation Xrotation
				JOINT RightToe
				{
					OFFSET -0.025372 -0.048144 0.123348
					CHANNELS 3 Zrotation Yrotation Xrotation
					End Site
					{
						OFFSET 0.000000 0.000000 0.000000
					}
				}
			}
		}
	}
	JOINT Spine
	{
		OFFSET -0.002533 0.108963 -0.026696
		CHANNELS 3 Zrotation Yrotation Xrotation
		JOINT Spine1
		{
			OFFSET 0.005487 0.135180 0.001092
			CHANNELS 3 Zrotation Yrotation Xrotation
			JOINT Spine2
			{
				OFFSET 0.001457 0.052922 0.025425
				CHANNELS 3 Zrotation Yrotation Xrotation
				JOINT Neck
				{
					OFFSET -0.002778 0.213870 -0.042857
					CHANNELS 3 Zrotation Yrotation Xrotation
					JOINT Head
					{
						OFFSET 0.005152 0.064970 0.051349
						CHANNELS 3 Zrotation Yrotation Xrotation
						End Site
						{
							OFFSET 0.000000 0.000000 0.000000
						}
					}
				}
				JOINT LeftShoulder
				{
					OFFSET 0.078845 0.121749 -0.034090
					CHANNELS 3 Zrotation Yrotation Xrotation
					JOINT LeftArm
					{
						OFFSET 0.090977 0.030469 -0.008868
						CHANNELS 3 Zrotation Yrotation Xrotation
						JOINT LeftForeArm
						{
							OFFSET 0.259612 -0.012772 -0.027456
							CHANNELS 3 Zrotation Yrotation Xrotation
							JOINT LeftHand
							{
								OFFSET 0.249234 0.008986 -0.001171
								CHANNELS 3 Zrotation Yrotation Xrotation
								End Site
								{
									OFFSET 0.000000 0.000000 0.000000
								}
							}
						}
					}
				}
				JOINT RightShoulder
				{
					OFFSET -0.081759 0.118833 -0.038615
					CHANNELS 3 Zrotation Yrotation Xrotation
					JOINT RightArm
					{
						OFFSET -0.096012 0.032551 -0.009143
						CHANNELS 3 Zrotation Yrotation Xrotation
						JOINT RightForeArm
						{
							OFFSET -0.253742 -0.013329 -0.021401
							CHANNELS 3 Zrotation Yrotation Xrotation
							JOINT RightHand
							{
								OFFSET -0.255298 0.007772 -0.005559
								CHANNELS 3 Zrotation Yrotation Xrotation
								End Site
								{
									OFFSET 0.000000 0.000000 0.000000
								}
							}
						}
					}
				}
			}
		}
	}
}
MOTION
Frames: 17
Frame Time: 0.050000
0.700603 0.945283 -1.113149 -176.761903 -65.610967 -179.339302 -3.024361 8.231279 -25.676105 2.025369 1.870457 5.907060 52.520321 29.816542 109.127656 0.000000 0.000000 0.000000 -2.308339 2.740005 2.302567 7.884990 3.720619 1.389965 -18.421736 -10.832096 15.188557 0.000000 0.000000 0.000000 12.827418 0.605056 7.684727 -2.975357 0.338132 -30.566957 4.149606 20.272786 35.692856 6.869577 -8.061069 -37.972773 0.000000 0.000000 0.000000 -25.979941 5.279743 20.424110 -39.355328 -34.018005 0.448093 164.341571 -23.315895 -52.558525 0.000000 0.000000 0.000000 22.448898 12.775628 -29.156172 64.569725 7.019044 2.222132 139.801612 32.332132 42.938158 0.000000 0.000000 0.000000 
0.672167 0.941781 -1.118678 -176.346810 -67.810801 -179.176995 -3.067130 8.405246 -26.544237 0.068365 0.540888 -3.857131 27.558782 19.986140 85.207516 0.000000 0.000000 0.000000 -2.261562 3.151027 4.429966 7.516762 3.258594 1.565029 -17.045146 -10.766831 12.305058 0.000000 0.000000 0.000000 12.431890 0.479804 8.207315 -2.696621 0.945675 -32.415703 5.399958 21.398273 36.868220 5.817744 -7.764630 -39.130701 0.000000 0.000000 0.000000 -25.552788 4.784716 19.173948 -40.168757 -33.142352 0.440606 164.625848 -23.938683 -55.919455 0.000000 0.000000 0.000000 22.203833 12.409495 -26.964420 66.579261 10.785917 3.145183 139.574093 33.845207 44.818285 0.000000 0.000000 0.000000 
0.641018 0.935883 -1.124300 -176.936016 -70.915893 -178.471184 -3.241646 7.945171 -26.806236 -2.118645 0.996144 -6.925243 14.084769 6.346642 49.392252 0.000000 0.000000 0.000000 -2.176664 3.785386 7.222634 7.133137 2.720551 1.770277 -16.804318 -11.352392 10.041713 0.000000 0.000000 0.000000 11.332874 0.275010 8.707923 -2.934260 0.984100 -32.076814 5.860069 22.226644 35.929331 5.164395 -7.369639 -39.228245 0.000000 0.000000 0.000000 -23.849330 3.428705 17.394784 -43.145232 -33.372650 1.951432 165.388695 -24.672933 -58.315079 0.000000 0.000000 0.000000 22.068019 12.575472 -24.504403 69.472134 14.973330 4.435410 138.844463 35.769483 46.351316 0.000000 0.000000 0.000000 
0.605941 0.929247 -1.130381 -175.739687 -73.067596 -178.995995 -3.423811 7.979840 -27.624114 -3.058115 1.426160 -3.482226 9.909090 4.848332 28.763316 0.000000 0.000000 0.000000 -2.100212 4.425302 9.559066 7.113200 2.396643 2.203760 -14.057731 -10.046781 7.402173 0.000000 0.000000 0.000000 10.577779 0.116198 9.161610 -3.611394 1.409827 -33.671619 7.016390 22.666964 37.013031 4.459520 -6.833876 -40.581867 0.000000 0.000000 0.000000 -24.643031 1.671503 18.210230 -39.903276 -34.831664 1.510218 165.025869 -23.306609 -57.433169 0.000000 0.000000 0.000000 23.986416 14.025232 -23.628176 69.749187 17.225339 6.398437 136.960681 37.354402 46.913875 0.000000 0.000000 0.000000 
0.565329 0.921887 -1.136154 -172.500391 -75.496894 178.469608 -3.707112 8.258686 -28.969082 -3.231665 2.154222 1.606075 6.942163 3.575187 22.472726 0.000000 0.000000 0.000000 -1.309690 4.327519 10.595381 6.261852 1.973475 4.958821 -10.244339 -7.841311 6.057806 0.000000 0.000000 0.000000 9.819700 -0.055064 8.324344 -3.688117 0.921701 -32.210912 6.340742 23.839401 35.867630 5.684025 -6.672739 -41.649348 0.000000 0.000000 0.000000 -22.933693 0.516486 16.592815 -39.896487 -35.310318 2.370425 166.071638 -23.721144 -60.962748 0.000000 0.000000 0.000000 26.137492 14.633839 -23.185548 69.941656 17.953770 7.525894 138.146016 38.110914 50.994791 0.000000 0.000000 0.000000 
0.518281 0.918471 -1.139799 -171.017745 -77.194347 177.327527 -3.639526 7.988604 -29.005495 -3.704049 3.538722 6.328757 4.945346 3.054834 17.168368 0.000000 0.000000 0.000000 -1.527100 4.594809 11.494284 6.621363 2.077808 8.693417 -6.704316 -6.967682 7.185310 0.000000 0.000000 0.000000 9.368615 -0.139946 6.889356 -5.501322 0.866905 -31.805652 7.827334 24.119792 36.645843 5.039283 -5.652156 -43.850433 0.000000 0.000000 0.000000 -22.894672 -1.028690 16.835768 -38.221935 -35.688354 2.116455 165.708002 -23.708122 -61.422577 0.000000 0.000000 0.000000 26.631513 15.568220 -21.590160 69.576473 18.944456 7.898054 137.440474 38.317118 50.094975 0.000000 0.000000 0.000000 
0.465712 0.920045 -1.138778 -171.526025 -80.188068 178.020300 -4.449757 6.105860 -27.306251 -3.682533 4.433155 9.064051 3.390489 3.163263 11.648749 0.000000 0.000000 0.000000 -3.196797 4.673727 10.612548 8.358286 2.895311 14.609283 -0.114217 -7.019414 13.186075 0.000000 0.000000 0.000000 8.281990 -0.212774 4.835606 -4.638096 0.963623 -31.929898 7.112826 24.947293 37.719295 5.927336 -5.622093 -44.374674 0.000000 0.000000 0.000000 -22.121549 -1.479328 15.675716 -37.817773 -35.424823 1.964268 164.645170 -24.476436 -60.756741 0.000000 0.000000 0.000000 28.083644 14.243004 -21.609938 68.923433 19.011101 7.858076 137.077931 38.007017 51.215255 0.000000 0.000000 0.000000 
0.411595 0.924842 -1.133280 -170.917720 -82.914572 177.005667 -4.991370 3.931607 -23.998527 -3.660291 5.005296 10.465576 2.117412 3.231744 7.640228 0.000000 0.000000 0.000000 -5.439040 4.352168 7.819571 11.835070 5.034562 24.210884 6.802151 -7.638804 22.011666 0.000000 0.000000 0.000000 7.936950 -0.155740 3.450426 -4.969342 0.403513 -29.297560 5.688785 24.788972 35.456115 6.798728 -5.966678 -42.817002 0.000000 0.000000 0.000000 -21.628790 -2.821081 15.306599 -38.137646 -35.748349 2.346596 163.424001 -26.085674 -62.702011 0.000000 0.000000 0.000000 27.364034 15.254298 -18.518843 69.420623 20.389633 7.627755 138.356593 38.707452 54.498928 0.000000 0.000000 0.000000 
0.360550 0.929665 -1.125078 -166.651334 -86.795039 171.556909 -5.944281 1.528852 -19.263799 -3.463666 4.895913 10.598888 0.720275 2.633834 4.858574 0.000000 0.000000 0.000000 -7.470932 3.641390 3.569684 16.972181 8.184856 36.600451 9.345100 -9.159228 30.538374 0.000000 0.000000 0.000000 7.618650 -0.222761 4.064036 -5.252920 0.431559 -29.014469 5.130881 23.755182 34.634611 8.437663 -5.897524 -43.616840 0.000000 0.000000 0.000000 -22.564747 -4.344351 16.058358 -35.594356 -36.817982 1.821294 161.162731 -27.459679 -63.626675 0.000000 0.000000 0.000000 27.720173 13.447472 -17.695859 69.849174 21.545732 7.917463 139.244540 37.509715 55.589492 0.000000 0.000000 0.000000 
0.314969 0.933327 -1.115743 -94.334786 -89.288735 98.690621 -7.149365 0.012510 -14.813264 -2.590069 3.945089 9.434283 -0.237841 2.248833 2.978222 0.000000 0.000000 0.000000 -9.239153 3.070775 -2.495154 24.604890 10.341974 48.152723 5.224208 -13.220037 36.991462 0.000000 0.000000 0.000000 8.558003 -0.155831 4.159409 -6.111467 0.377392 -27.724172 4.151289 22.557889 33.174646 9.222054 -6.049346 -43.185365 0.000000 0.000000 0.000000 -21.816329 -5.229840 15.599118 -35.115355 -36.401078 1.798228 160.583834 -27.419196 -63.821764 0.000000 0.000000 0.000000 27.947649 13.770640 -16.285245 69.686059 22.672263 8.522148 141.950572 37.566359 61.008601 0.000000 0.000000 0.000000 
0.273544 0.939247 -1.105959 -17.497099 -86.475606 20.752866 -8.272515 -0.839827 -9.646170 -0.978970 2.568521 7.677535 -1.087505 1.183235 2.678799 0.000000 0.000000 0.000000 -9.273925 2.662241 -7.945263 30.344383 10.412349 54.916267 -5.049513 -20.690473 40.355697 0.000000 0.000000 0.000000 9.490573 -0.115210 4.777911 -5.569395 0.494398 -28.394585 3.333658 21.631128 34.143986 10.687231 -6.049925 -44.538815 0.000000 0.000000 0.000000 -22.467444 -5.753786 15.924846 -34.373761 -36.605631 1.411080 159.540903 -27.039672 -62.208208 0.000000 0.000000 0.000000 27.290257 13.622977 -15.070724 70.378067 25.491713 9.649713 142.386949 38.992822 65.875249 0.000000 0.000000 0.000000 
0.234651 0.943958 -1.095497 -11.661352 -83.026810 14.176337 -9.606214 -0.970906 -5.368291 1.419102 1.269021 6.519885 -2.044773 -0.573938 2.845265 0.000000 0.000000 0.000000 -9.102094 2.881628 -13.308055 31.270088 9.559152 54.485796 -19.710436 -31.182232 37.874456 0.000000 0.000000 0.000000 11.428359 0.078261 4.954226 -6.610346 0.753265 -28.457809 3.143369 20.214392 34.685519 11.000258 -6.338421 -43.767487 0.000000 0.000000 0.000000 -21.863504 -6.740758 15.824933 -35.336807 -36.451304 1.678655 159.345392 -27.652388 -63.735120 0.000000 0.000000 0.000000 26.866307 13.515269 -14.043837 70.776761 27.301947 10.511471 143.575558 40.155195 71.161183 0.000000 0.000000 0.000000 
0.196825 0.947194 -1.084947 -9.028638 -77.655721 11.110721 -10.109940 -0.558946 -1.325190 3.773541 0.146056 5.151683 -3.937615 -4.335302 3.209312 0.000000 0.000000 0.000000 -8.315764 3.319515 -17.769771 26.671565 8.649610 49.500352 -24.187234 -36.954752 25.019017 0.000000 0.000000 0.000000 12.287236 0.106073 5.179848 -6.286879 0.848218 -28.410500 2.089478 17.607689 34.470105 11.470927 -6.146775 -44.547059 0.000000 0.000000 0.000000 -20.704987 -6.848862 14.672346 -39.248820 -35.647649 2.540479 161.333814 -26.724105 -65.269272 0.000000 0.000000 0.000000 26.941233 12.679274 -13.306463 69.880826 28.380222 10.893499 145.442479 40.019963 75.991554 0.000000 0.000000 0.000000 
0.158937 0.947348 -1.074272 -8.132325 -72.368187 9.142219 -9.514811 0.251671 2.874657 5.270958 -0.411777 4.517314 -6.175168 -8.563246 3.211065 0.000000 0.000000 0.000000 -7.552708 3.526411 -19.822347 17.851438 6.782416 38.440788 -18.572640 -32.323822 13.833735 0.000000 0.000000 0.000000 12.579543 0.055792 5.450469 -6.046235 0.934809 -28.508444 1.589296 15.102823 34.505929 11.191478 -5.841417 -44.875462 0.000000 0.000000 0.000000 -19.449351 -7.201625 13.624063 -41.051105 -35.169089 3.135517 161.955453 -26.782639 -67.180299 0.000000 0.000000 0.000000 26.958056 12.694271 -12.196642 68.346191 29.744243 11.384688 148.230039 41.739180 85.706850 0.000000 0.000000 0.000000 
0.119986 0.944746 -1.063024 -8.419202 -67.578943 9.335988 -7.972905 0.994657 6.039322 6.289076 -0.777630 3.601819 -8.333144 -12.606303 3.107999 0.000000 0.000000 0.000000 -6.087957 3.876267 -22.060934 9.660401 3.353649 23.046539 -13.845413 -28.037265 14.891833 0.000000 0.000000 0.000000 12.856427 0.002977 5.418640 -5.540843 0.720643 -27.283591 0.660402 13.621033 32.445510 12.034974 -5.862823 -44.453670 0.000000 0.000000 0.000000 -20.415638 -7.464134 13.439759 -40.968985 -34.358025 2.653825 163.786684 -24.525779 -68.895153 0.000000 0.000000 0.000000 28.530011 12.194219 -11.393627 64.988147 29.475146 11.142098 151.113669 40.110734 91.231630 0.000000 0.000000 0.000000 
0.078587 0.939277 -1.049818 -7.775465 -63.055077 8.463890 -6.822296 1.912930 9.452184 7.926297 -1.131957 2.666345 -10.380462 -16.627736 3.186820 0.000000 0.000000 0.000000 -5.282016 3.934401 -22.787848 6.727452 0.933443 7.462131 -5.800360 -21.273173 17.719871 0.000000 0.000000 0.000000 13.080070 -0.022558 5.247389 -4.850578 0.861710 -28.150572 -0.303080 11.864526 32.466360 12.171458 -5.347545 -45.824181 0.000000 0.000000 0.000000 -19.903337 -8.662760 13.311899 -41.836437 -33.854399 2.882048 163.993593 -23.231600 -67.494585 0.000000 0.000000 0.000000 28.770229 11.331722 -10.978894 64.753079 29.360838 10.807873 152.351111 40.136372 95.493746 0.000000 0.000000 0.000000 
0.033904 0.931179 -1.033876 -8.188718 -60.351611 8.929481 -5.852567 2.889591 12.733761 8.248140 -1.201331 1.710592 -8.629601 -14.778939 2.591588 0.000000 0.000000 0.000000 -3.698378 4.078805 -23.419545 6.057246 0.684503 0.630611 2.568185 -11.381560 17.318472 0.000000 0.000000 0.000000 14.060016 0.048009 4.948642 -4.232996 0.881462 -28.906027 -1.904740 11.348972 32.796397 13.853239 -6.021949 -45.308330 0.000000 0.000000 0.000000 -20.199211 -8.323615 12.868053 -41.585934 -34.940258 3.148071 164.321013 -22.635538 -67.795612 0.000000 0.000000 0.000000 29.434581 10.949959 -10.577183 65.185046 30.225785 11.199669 154.321233 39.362230 100.426924 0.000000 0.000000 0.000000 
